<svg width="354" height="108" viewBox="0 0 354 108" fill="none" xmlns="http://www.w3.org/2000/svg">
    <path fill-rule="evenodd" clip-rule="evenodd" d="M309.78 0.75V14.66C308.71 6.1 300 9 300 9L309.78 0.75ZM7.52593 61.38C12.2459 65.92 18.1059 68.19 25.1159 68.19V68.21C29.4859 68.21 33.5459 67.28 37.2859 65.42C41.0359 63.56 44.0259 61.09 46.2759 58.02L39.6559 51.98C35.9359 56.66 31.2859 58.99 25.7059 58.99C21.3359 58.99 17.7059 57.54 14.8059 54.64C11.9059 51.74 10.4559 48.22 10.4559 43.67C10.4559 39.12 11.9259 35.38 14.8659 32.44C17.8059 29.45 21.4359 27.96 25.7659 27.96C31.1259 27.96 35.6959 30.27 39.4559 34.9L45.8859 28.61C43.7659 25.58 40.8659 23.16 37.1859 21.37C33.5059 19.58 29.5259 18.68 25.2459 18.68C18.3659 18.68 12.5059 21.04 7.65593 25.75C2.85593 30.42 0.455933 36.44 0.455933 43.66C0.455933 50.88 2.80593 56.79 7.52593 61.38ZM49.3859 49.75C49.3859 44.52 51.1559 40.13 54.7059 36.58C58.2959 32.95 62.8359 31.13 68.3359 31.13C73.8359 31.13 78.3659 32.95 81.9659 36.58C85.5159 40.13 87.2859 44.52 87.2859 49.75C87.2859 54.98 85.5159 59.44 81.9659 62.99C78.3759 66.58 73.8359 68.38 68.3359 68.38C62.8359 68.38 58.2959 66.59 54.7059 62.99C51.1559 59.44 49.3859 55.03 49.3859 49.75ZM61.3259 56.95C63.1859 58.9 65.5259 59.87 68.3359 59.87C71.1459 59.87 73.3759 58.9 75.2759 56.95C77.1759 54.92 78.1259 52.52 78.1259 49.75C78.1259 46.98 77.1759 44.6 75.2759 42.61C73.3759 40.66 71.0559 39.69 68.3359 39.69C65.6159 39.69 63.1859 40.66 61.3259 42.61C59.4659 44.51 58.5359 46.89 58.5359 49.75C58.5359 52.61 59.4659 54.96 61.3259 56.95ZM102.846 67.47H102.856L102.846 67.48V67.47ZM102.846 48.53V67.47H93.7059V32.1H102.656V37.03C103.606 35.26 105.076 33.83 107.066 32.75C109.056 31.67 111.286 31.13 113.746 31.13C117.596 31.13 120.856 32.41 123.546 34.96C126.226 37.51 127.566 41.15 127.566 45.86V67.47H118.416V48.33C118.416 45.56 117.746 43.41 116.406 41.87C115.066 40.33 113.246 39.57 110.956 39.57C108.536 39.57 106.576 40.4 105.086 42.07C103.596 43.73 102.846 45.89 102.846 48.53ZM149.316 55.01L158.016 32.1H168.076L152.696 67.4H145.686L130.366 32.1H140.426L149.316 55.01ZM204.926 53C205.136 51.4 205.246 50.06 205.246 48.98H205.226C205.226 43.53 203.566 39.2 200.236 36C196.906 32.8 192.666 31.2 187.516 31.2C182.066 31.2 177.636 32.96 174.216 36.46C170.806 39.92 169.096 44.57 169.096 49.76C169.096 54.95 170.736 59.32 174.026 62.87C177.356 66.47 182.116 68.26 188.306 68.26C194.106 68.26 199.256 66.64 203.756 63.39L200.126 56.96C196.626 59.34 192.816 60.53 188.706 60.53C183.126 60.53 179.686 58.02 178.386 53H204.926ZM181.666 40.77C183.286 39.45 185.246 38.79 187.536 38.79C189.876 38.79 191.816 39.45 193.376 40.77C194.926 42.09 195.926 43.9 196.356 46.19H178.386C178.956 43.89 180.046 42.09 181.666 40.77ZM220.696 67.47H211.546V32.1H220.306V36.84C222.426 33.03 225.666 31.13 230.036 31.13C231.466 31.13 232.886 31.39 234.316 31.91L233.536 40.67C231.976 40.19 230.576 39.96 229.316 39.96C226.636 39.96 224.526 40.86 222.996 42.65C221.456 44.44 220.696 47.12 220.696 50.66V67.47ZM305.276 10.82C305.276 10.82 296.086 33.52 267.986 38.61L268.006 38.62C262.726 39.57 251.656 39.77 251.656 39.77V53.79C251.656 57.94 253.316 60.02 256.646 60.02C258.466 60.02 260.436 59.41 262.556 58.2L265.286 65.4C262.336 67.35 258.866 68.32 254.836 68.32C250.806 68.32 247.696 67.14 245.616 64.78C243.536 62.42 242.496 58.95 242.496 54.37V39.77H236.716V32.11H242.556V19.59H251.636V32.11C251.636 32.11 265.336 31.8 265.406 31.8C275.706 31.16 293.946 24.37 305.276 10.82ZM270.266 49.95V44.15L279.936 39.24V49.3C279.936 52.46 280.736 54.86 282.336 56.5C283.936 58.14 286.166 58.97 289.016 58.97C291.866 58.97 293.976 58.13 295.566 56.44C297.166 54.75 297.966 52.38 297.966 49.3V30.12L307.696 25.17V49.95C307.696 55.97 305.926 60.53 302.376 63.64C298.876 66.76 294.416 68.31 289.006 68.31C283.596 68.31 279.126 66.75 275.576 63.64C272.026 60.52 270.256 55.96 270.256 49.95H270.266ZM348.976 36.59C345.646 32.99 341.486 31.2 336.516 31.2V31.19C332.056 31.19 328.316 32.95 325.286 36.45V32.1H316.206V82.01H325.356V63.39C328.386 66.68 332.086 68.32 336.456 68.32C341.426 68.32 345.586 66.52 348.916 62.93C352.246 59.34 353.906 54.99 353.906 49.76C353.906 44.53 352.266 40.14 348.976 36.59ZM341.966 57.03C340.156 58.98 337.796 59.95 334.896 59.95C332.036 59.95 329.706 58.97 327.886 57.03C326.066 55.09 325.156 52.68 325.156 49.83C325.156 46.98 326.076 44.58 327.886 42.63C329.706 40.68 332.006 39.71 334.896 39.71C337.786 39.71 340.146 40.68 341.966 42.63C343.786 44.57 344.696 46.98 344.696 49.83C344.696 52.68 343.786 55.08 341.966 57.03Z" fill="url(#paint0_linear_4063_193797)"/>
    <path d="M113.781 85.21V100.906H122.133V102.01H112.557V85.21H113.781ZM148.861 85.21V86.266H140.365V92.794H148.501V93.874H140.365V100.906H148.933V102.01H139.165V85.21H148.861ZM177.789 97.162H168.645L166.365 102.01H165.093V101.866L172.965 85.162H173.517L181.317 101.866V102.01H180.069L177.789 97.162ZM173.229 87.154L169.053 96.106H177.381L173.229 87.154ZM198.381 85.21H204.165C206.613 85.21 208.581 86.018 210.069 87.634C211.557 89.25 212.301 91.242 212.301 93.61C212.301 96.01 211.557 98.01 210.069 99.61C208.581 101.21 206.613 102.01 204.165 102.01H198.381V85.21ZM199.605 100.882H204.117C206.197 100.882 207.877 100.194 209.157 98.818C210.453 97.442 211.101 95.714 211.101 93.634C211.101 91.554 210.461 89.818 209.181 88.426C207.901 87.034 206.221 86.338 204.141 86.338H199.605V100.882ZM229.11 97.618H230.19C230.254 98.45 230.598 99.146 231.222 99.706C231.846 100.266 232.55 100.658 233.334 100.882C234.118 101.09 234.926 101.194 235.758 101.194C236.622 101.194 237.43 101.074 238.182 100.834C238.934 100.578 239.582 100.154 240.126 99.562C240.686 98.97 240.974 98.258 240.99 97.426C241.006 97.026 240.95 96.666 240.822 96.346C240.71 96.026 240.582 95.762 240.438 95.554C240.294 95.346 240.046 95.154 239.694 94.978C239.358 94.786 239.086 94.642 238.878 94.546C238.67 94.45 238.31 94.354 237.798 94.258C237.302 94.146 236.958 94.074 236.766 94.042C236.574 94.01 236.19 93.954 235.614 93.874C234.99 93.794 234.478 93.722 234.078 93.658C233.678 93.594 233.206 93.498 232.662 93.37C232.134 93.226 231.702 93.058 231.366 92.866C231.046 92.674 230.726 92.434 230.406 92.146C230.102 91.858 229.87 91.506 229.71 91.09C229.566 90.658 229.494 90.17 229.494 89.626C229.494 88.618 229.806 87.746 230.43 87.01C231.054 86.274 231.806 85.746 232.686 85.426C233.566 85.106 234.502 84.946 235.494 84.946C237.206 84.946 238.646 85.306 239.814 86.026C240.998 86.746 241.638 87.85 241.734 89.338H240.606C240.558 88.73 240.366 88.202 240.03 87.754C239.694 87.29 239.27 86.938 238.758 86.698C238.246 86.458 237.718 86.29 237.174 86.194C236.63 86.082 236.07 86.026 235.494 86.026C234.662 86.026 233.894 86.146 233.19 86.386C232.502 86.61 231.918 87.002 231.438 87.562C230.958 88.122 230.718 88.802 230.718 89.602C230.718 90.114 230.83 90.562 231.054 90.946C231.278 91.314 231.502 91.602 231.726 91.81C231.95 92.002 232.35 92.178 232.926 92.338C233.502 92.498 233.894 92.594 234.102 92.626C234.31 92.658 234.766 92.714 235.47 92.794C235.63 92.81 235.742 92.826 235.806 92.842C236.59 92.954 237.238 93.066 237.75 93.178C238.262 93.274 238.83 93.434 239.454 93.658C240.078 93.882 240.566 94.146 240.918 94.45C241.286 94.754 241.59 95.162 241.83 95.674C242.086 96.186 242.206 96.778 242.19 97.45C242.158 99.002 241.51 100.194 240.246 101.026C238.998 101.842 237.518 102.25 235.806 102.25C234.702 102.25 233.678 102.106 232.734 101.818C231.79 101.514 230.966 101.002 230.262 100.282C229.558 99.562 229.174 98.674 229.11 97.618Z" fill="#4A4A4A"/>
    <path d="M113.781 85.21H114.781V84.21H113.781V85.21ZM113.781 100.906H112.781V101.906H113.781V100.906ZM122.133 100.906H123.133V99.906H122.133V100.906ZM122.133 102.01V103.01H123.133V102.01H122.133ZM112.557 102.01H111.557V103.01H112.557V102.01ZM112.557 85.21V84.21H111.557V85.21H112.557ZM112.781 85.21V100.906H114.781V85.21H112.781ZM113.781 101.906H122.133V99.906H113.781V101.906ZM121.133 100.906V102.01H123.133V100.906H121.133ZM122.133 101.01H112.557V103.01H122.133V101.01ZM113.557 102.01V85.21H111.557V102.01H113.557ZM112.557 86.21H113.781V84.21H112.557V86.21ZM148.861 85.21H149.861V84.21H148.861V85.21ZM148.861 86.266V87.266H149.861V86.266H148.861ZM140.365 86.266V85.266H139.365V86.266H140.365ZM140.365 92.794H139.365V93.794H140.365V92.794ZM148.501 92.794H149.501V91.794H148.501V92.794ZM148.501 93.874V94.874H149.501V93.874H148.501ZM140.365 93.874V92.874H139.365V93.874H140.365ZM140.365 100.906H139.365V101.906H140.365V100.906ZM148.933 100.906H149.933V99.906H148.933V100.906ZM148.933 102.01V103.01H149.933V102.01H148.933ZM139.165 102.01H138.165V103.01H139.165V102.01ZM139.165 85.21V84.21H138.165V85.21H139.165ZM147.861 85.21V86.266H149.861V85.21H147.861ZM148.861 85.266H140.365V87.266H148.861V85.266ZM139.365 86.266V92.794H141.365V86.266H139.365ZM140.365 93.794H148.501V91.794H140.365V93.794ZM147.501 92.794V93.874H149.501V92.794H147.501ZM148.501 92.874H140.365V94.874H148.501V92.874ZM139.365 93.874V100.906H141.365V93.874H139.365ZM140.365 101.906H148.933V99.906H140.365V101.906ZM147.933 100.906V102.01H149.933V100.906H147.933ZM148.933 101.01H139.165V103.01H148.933V101.01ZM140.165 102.01V85.21H138.165V102.01H140.165ZM139.165 86.21H148.861V84.21H139.165V86.21ZM177.789 97.162L178.694 96.7364L178.424 96.162H177.789V97.162ZM168.645 97.162V96.162H168.01L167.74 96.7364L168.645 97.162ZM166.365 102.01V103.01H167L167.27 102.436L166.365 102.01ZM165.093 102.01H164.093V103.01H165.093V102.01ZM165.093 101.866L164.189 101.44L164.093 101.642V101.866H165.093ZM172.965 85.162V84.162H172.331L172.061 84.7357L172.965 85.162ZM173.517 85.162L174.423 84.7389L174.154 84.162H173.517V85.162ZM181.317 101.866H182.317V101.644L182.223 101.443L181.317 101.866ZM181.317 102.01V103.01H182.317V102.01H181.317ZM180.069 102.01L179.164 102.436L179.434 103.01H180.069V102.01ZM173.229 87.154L174.136 86.7333L173.232 84.783L172.323 86.7313L173.229 87.154ZM169.053 96.106L168.147 95.6833L167.483 97.106H169.053V96.106ZM177.381 96.106V97.106H178.947L178.288 95.6853L177.381 96.106ZM177.789 96.162H168.645V98.162H177.789V96.162ZM167.74 96.7364L165.46 101.584L167.27 102.436L169.55 97.5876L167.74 96.7364ZM166.365 101.01H165.093V103.01H166.365V101.01ZM166.093 102.01V101.866H164.093V102.01H166.093ZM165.998 102.292L173.87 85.5883L172.061 84.7357L164.189 101.44L165.998 102.292ZM172.965 86.162H173.517V84.162H172.965V86.162ZM172.611 85.5851L180.411 102.289L182.223 101.443L174.423 84.7389L172.611 85.5851ZM180.317 101.866V102.01H182.317V101.866H180.317ZM181.317 101.01H180.069V103.01H181.317V101.01ZM180.974 101.584L178.694 96.7364L176.884 97.5876L179.164 102.436L180.974 101.584ZM172.323 86.7313L168.147 95.6833L169.959 96.5288L174.135 87.5768L172.323 86.7313ZM169.053 97.106H177.381V95.106H169.053V97.106ZM178.288 95.6853L174.136 86.7333L172.322 87.5748L176.474 96.5268L178.288 95.6853ZM198.381 85.21V84.21H197.381V85.21H198.381ZM198.381 102.01H197.381V103.01H198.381V102.01ZM199.605 100.882H198.605V101.882H199.605V100.882ZM209.157 98.818L208.429 98.1324L208.425 98.1369L209.157 98.818ZM209.181 88.426L209.917 87.7491V87.7491L209.181 88.426ZM199.605 86.338V85.338H198.605V86.338H199.605ZM198.381 86.21H204.165V84.21H198.381V86.21ZM204.165 86.21C206.369 86.21 208.058 86.9257 209.334 88.3114L210.805 86.9566C209.105 85.1103 206.857 84.21 204.165 84.21V86.21ZM209.334 88.3114C210.638 89.7276 211.301 91.4716 211.301 93.61H213.301C213.301 91.0124 212.477 88.7724 210.805 86.9566L209.334 88.3114ZM211.301 93.61C211.301 95.7844 210.635 97.5329 209.337 98.929L210.802 100.291C212.479 98.4871 213.301 96.2357 213.301 93.61H211.301ZM209.337 98.929C208.062 100.3 206.372 101.01 204.165 101.01V103.01C206.854 103.01 209.101 102.12 210.802 100.291L209.337 98.929ZM204.165 101.01H198.381V103.01H204.165V101.01ZM199.381 102.01V85.21H197.381V102.01H199.381ZM199.605 101.882H204.117V99.882H199.605V101.882ZM204.117 101.882C206.442 101.882 208.399 101.101 209.889 99.4991L208.425 98.1369C207.356 99.2866 205.952 99.882 204.117 99.882V101.882ZM209.885 99.5036C211.374 97.9228 212.101 95.941 212.101 93.634H210.101C210.101 95.487 209.532 96.9612 208.429 98.1324L209.885 99.5036ZM212.101 93.634C212.101 91.3305 211.385 89.3448 209.917 87.7491L208.445 89.1029C209.538 90.2912 210.101 91.7776 210.101 93.634H212.101ZM209.917 87.7491C208.428 86.1294 206.47 85.338 204.141 85.338V87.338C205.973 87.338 207.375 87.9387 208.445 89.1029L209.917 87.7491ZM204.141 85.338H199.605V87.338H204.141V85.338ZM198.605 86.338V100.882H200.605V86.338H198.605ZM229.11 97.618V96.618H228.048L228.112 97.6785L229.11 97.618ZM230.19 97.618L231.187 97.5413L231.116 96.618H230.19V97.618ZM231.222 99.706L230.554 100.45L231.222 99.706ZM233.334 100.882L233.06 101.844L233.069 101.846L233.078 101.849L233.334 100.882ZM238.182 100.834L238.486 101.787L238.495 101.784L238.505 101.781L238.182 100.834ZM240.126 99.562L239.4 98.8748L239.395 98.8801L239.39 98.8854L240.126 99.562ZM240.99 97.426L239.991 97.386L239.991 97.3964L239.99 97.4068L240.99 97.426ZM240.822 96.346L239.878 96.6764L239.886 96.697L239.894 96.7174L240.822 96.346ZM240.438 95.554L241.26 94.9848V94.9848L240.438 95.554ZM239.694 94.978L239.198 95.8463L239.222 95.86L239.247 95.8724L239.694 94.978ZM238.878 94.546L239.297 93.6381L238.878 94.546ZM237.798 94.258L237.578 95.2335L237.596 95.2375L237.614 95.2409L237.798 94.258ZM235.614 93.874L235.752 92.8835L235.741 92.8821L235.614 93.874ZM234.078 93.658L233.92 94.6454L234.078 93.658ZM232.662 93.37L232.399 94.3348L232.416 94.3394L232.433 94.3434L232.662 93.37ZM231.366 92.866L230.852 93.7235L230.861 93.729L230.87 93.7343L231.366 92.866ZM230.406 92.146L229.719 92.872L229.728 92.8808L229.737 92.8893L230.406 92.146ZM229.71 91.09L228.762 91.4062L228.769 91.4278L228.777 91.449L229.71 91.09ZM230.43 87.01L231.193 87.6567L231.193 87.6567L230.43 87.01ZM232.686 85.426L232.345 84.4862V84.4862L232.686 85.426ZM239.814 86.026L239.29 86.8773L239.295 86.8804L239.814 86.026ZM241.734 89.338V90.338H242.801L242.732 89.2736L241.734 89.338ZM240.606 89.338L239.609 89.4167L239.682 90.338H240.606V89.338ZM240.03 87.754L239.22 88.3405L239.225 88.3473L239.23 88.354L240.03 87.754ZM238.758 86.698L238.334 87.6035V87.6035L238.758 86.698ZM237.174 86.194L236.973 87.1735L236.987 87.1763L237 87.1788L237.174 86.194ZM233.19 86.386L233.5 87.337L233.513 87.3325L233.19 86.386ZM231.438 87.562L230.679 86.9112V86.9112L231.438 87.562ZM231.054 90.946L230.19 91.4499L230.195 91.458L230.2 91.466L231.054 90.946ZM231.726 91.81L231.046 92.5428L231.06 92.5563L231.075 92.5693L231.726 91.81ZM232.926 92.338L233.194 91.3745L232.926 92.338ZM234.102 92.626L234.254 91.6376L234.102 92.626ZM235.47 92.794L235.357 93.7877L235.371 93.789L235.47 92.794ZM235.806 92.842L235.564 93.8122L235.614 93.8247L235.665 93.832L235.806 92.842ZM237.75 93.178L237.537 94.1549L237.551 94.1581L237.566 94.1609L237.75 93.178ZM240.918 94.45L240.265 95.2068L240.273 95.214L240.281 95.221L240.918 94.45ZM241.83 95.674L240.925 96.0984L240.93 96.1099L240.936 96.1212L241.83 95.674ZM242.19 97.45L241.191 97.4262L241.19 97.4294L242.19 97.45ZM240.246 101.026L240.794 101.863L240.796 101.861L240.246 101.026ZM232.734 101.818L232.428 102.77L232.435 102.772L232.442 102.774L232.734 101.818ZM230.262 100.282L230.977 99.5829L230.262 100.282ZM229.11 98.618H230.19V96.618H229.11V98.618ZM229.193 97.6947C229.277 98.7846 229.74 99.7193 230.554 100.45L231.89 98.9618C231.457 98.5727 231.231 98.1154 231.187 97.5413L229.193 97.6947ZM230.554 100.45C231.288 101.109 232.126 101.577 233.06 101.844L233.609 99.9205C232.975 99.7394 232.405 99.4234 231.89 98.9618L230.554 100.45ZM233.078 101.849C233.948 102.079 234.842 102.194 235.758 102.194V100.194C235.011 100.194 234.289 100.101 233.591 99.9154L233.078 101.849ZM235.758 102.194C236.716 102.194 237.627 102.061 238.486 101.787L237.878 99.8814C237.233 100.087 236.529 100.194 235.758 100.194V102.194ZM238.505 101.781C239.417 101.47 240.207 100.952 240.863 100.239L239.39 98.8854C238.958 99.3557 238.452 99.686 237.86 99.8874L238.505 101.781ZM240.853 100.249C241.588 99.4722 241.969 98.5203 241.99 97.4452L239.99 97.4068C239.979 97.9957 239.785 98.4679 239.4 98.8748L240.853 100.249ZM241.989 97.466C242.01 96.9479 241.939 96.4447 241.751 95.9746L239.894 96.7174C239.962 96.8874 240.002 97.1041 239.991 97.386L241.989 97.466ZM241.766 96.0157C241.634 95.6377 241.47 95.2868 241.26 94.9848L239.616 96.1232C239.695 96.2373 239.787 96.4143 239.878 96.6764L241.766 96.0157ZM241.26 94.9848C240.982 94.5825 240.568 94.2968 240.141 94.0836L239.247 95.8724C239.525 96.0112 239.607 96.1095 239.616 96.1232L241.26 94.9848ZM240.19 94.1098C239.844 93.9117 239.543 93.7516 239.297 93.6381L238.459 95.454C238.629 95.5324 238.873 95.6603 239.198 95.8463L240.19 94.1098ZM239.297 93.6381C238.967 93.4856 238.499 93.3721 237.983 93.2751L237.614 95.2409C238.121 95.336 238.374 95.4144 238.459 95.454L239.297 93.6381ZM238.019 93.2826C237.524 93.171 237.154 93.0929 236.931 93.0556L236.602 95.0284C236.762 95.0551 237.08 95.1211 237.578 95.2335L238.019 93.2826ZM236.931 93.0556C236.723 93.021 236.326 92.9632 235.752 92.8835L235.477 94.8645C236.055 94.9448 236.425 94.999 236.602 95.0284L236.931 93.0556ZM235.741 92.8821C235.123 92.8028 234.622 92.7323 234.236 92.6706L233.92 94.6454C234.335 94.7117 234.858 94.7852 235.487 94.8659L235.741 92.8821ZM234.236 92.6706C233.867 92.6115 233.42 92.521 232.891 92.3966L232.433 94.3434C232.993 94.475 233.489 94.5765 233.92 94.6454L234.236 92.6706ZM232.925 92.4052C232.448 92.2751 232.102 92.1346 231.862 91.9978L230.87 93.7343C231.303 93.9814 231.82 94.1769 232.399 94.3348L232.925 92.4052ZM231.881 92.0085C231.623 91.8541 231.355 91.6542 231.075 91.4027L229.737 92.8893C230.098 93.2139 230.469 93.4939 230.852 93.7235L231.881 92.0085ZM231.094 91.4201C230.905 91.2411 230.754 91.0171 230.644 90.731L228.777 91.449C228.987 91.9949 229.299 92.4749 229.719 92.872L231.094 91.4201ZM230.659 90.7738C230.555 90.4614 230.494 90.0828 230.494 89.626H228.494C228.494 90.2572 228.578 90.8546 228.762 91.4062L230.659 90.7738ZM230.494 89.626C230.494 88.8434 230.729 88.2034 231.193 87.6567L229.668 86.3633C228.883 87.2886 228.494 88.3927 228.494 89.626H230.494ZM231.193 87.6567C231.708 87.0491 232.317 86.6245 233.028 86.3658L232.345 84.4862C231.296 84.8675 230.4 85.4989 229.668 86.3633L231.193 87.6567ZM233.028 86.3658C233.792 86.088 234.612 85.946 235.494 85.946V83.946C234.393 83.946 233.34 84.1241 232.345 84.4862L233.028 86.3658ZM235.494 85.946C237.067 85.946 238.314 86.276 239.29 86.8773L240.339 85.1748C238.978 84.336 237.346 83.946 235.494 83.946V85.946ZM239.295 86.8804C240.176 87.4163 240.659 88.2109 240.736 89.4024L242.732 89.2736C242.617 87.4891 241.821 86.0757 240.334 85.1716L239.295 86.8804ZM241.734 88.338H240.606V90.338H241.734V88.338ZM241.603 89.2593C241.542 88.4799 241.29 87.7671 240.83 87.154L239.23 88.354C239.442 88.637 239.575 88.9801 239.609 89.4167L241.603 89.2593ZM240.84 87.1675C240.406 86.5681 239.85 86.1055 239.183 85.7926L238.334 87.6035C238.69 87.7706 238.982 88.0119 239.22 88.3405L240.84 87.1675ZM239.183 85.7926C238.593 85.5161 237.981 85.3209 237.348 85.2092L237 87.1788C237.456 87.2591 237.9 87.3999 238.334 87.6035L239.183 85.7926ZM237.376 85.2146C236.763 85.0884 236.136 85.026 235.494 85.026V87.026C236.005 87.026 236.497 87.0756 236.973 87.1735L237.376 85.2146ZM235.494 85.026C234.565 85.026 233.687 85.1601 232.868 85.4395L233.513 87.3325C234.102 87.1319 234.759 87.026 235.494 87.026V85.026ZM232.881 85.4351C232.015 85.7171 231.276 86.2146 230.679 86.9112L232.198 88.2128C232.56 87.7894 232.99 87.5029 233.5 87.3369L232.881 85.4351ZM230.679 86.9112C230.03 87.6683 229.718 88.5851 229.718 89.602H231.718C231.718 89.0189 231.886 88.5757 232.198 88.2128L230.679 86.9112ZM229.718 89.602C229.718 90.2638 229.864 90.891 230.19 91.4499L231.918 90.4421C231.796 90.233 231.718 89.9642 231.718 89.602H229.718ZM230.2 91.466C230.454 91.8832 230.733 92.2524 231.046 92.5428L232.407 91.0772C232.271 90.9516 232.103 90.7448 231.908 90.4261L230.2 91.466ZM231.075 92.5693C231.475 92.9121 232.057 93.1345 232.659 93.3015L233.194 91.3745C232.643 91.2215 232.425 91.0919 232.377 91.0508L231.075 92.5693ZM232.659 93.3015C233.227 93.4595 233.675 93.572 233.95 93.6144L234.254 91.6376C234.114 91.616 233.777 91.5365 233.194 91.3745L232.659 93.3015ZM233.95 93.6144C234.182 93.65 234.658 93.7082 235.357 93.7876L235.583 91.8004C234.874 91.7198 234.439 91.6661 234.254 91.6376L233.95 93.6144ZM235.371 93.789C235.442 93.7962 235.495 93.8026 235.533 93.808C235.575 93.814 235.58 93.8163 235.564 93.8122L236.049 91.8719C235.907 91.8363 235.729 91.8149 235.57 91.799L235.371 93.789ZM235.665 93.832C236.435 93.942 237.057 94.0501 237.537 94.1549L237.964 92.2011C237.419 92.082 236.745 91.966 235.948 91.8521L235.665 93.832ZM237.566 94.1609C238.014 94.2449 238.53 94.3886 239.116 94.5992L239.792 92.7168C239.131 92.4795 238.511 92.3031 237.935 92.1951L237.566 94.1609ZM239.116 94.5992C239.67 94.7979 240.036 95.0095 240.265 95.2068L241.572 93.6932C241.096 93.2825 240.487 92.9661 239.792 92.7168L239.116 94.5992ZM240.281 95.221C240.516 95.4149 240.736 95.6959 240.925 96.0984L242.736 95.2496C242.444 94.6281 242.056 94.0931 241.555 93.679L240.281 95.221ZM240.936 96.1212C241.107 96.4637 241.203 96.889 241.191 97.4262L243.19 97.4738C243.209 96.667 243.065 95.9084 242.725 95.2268L240.936 96.1212ZM241.19 97.4294C241.165 98.6625 240.677 99.5452 239.696 100.191L240.796 101.861C242.343 100.843 243.151 99.3415 243.19 97.4706L241.19 97.4294ZM239.699 100.189C238.637 100.884 237.353 101.25 235.806 101.25V103.25C237.683 103.25 239.36 102.8 240.794 101.863L239.699 100.189ZM235.806 101.25C234.79 101.25 233.865 101.117 233.026 100.862L232.442 102.774C233.492 103.095 234.615 103.25 235.806 103.25V101.25ZM233.041 100.866C232.254 100.613 231.57 100.189 230.977 99.5829L229.547 100.981C230.363 101.815 231.327 102.415 232.428 102.77L233.041 100.866ZM230.977 99.5829C230.45 99.044 230.159 98.3867 230.108 97.5575L228.112 97.6785C228.19 98.9613 228.666 100.08 229.547 100.981L230.977 99.5829Z" fill="#4A4A4A"/>
    <defs>
        <linearGradient id="paint0_linear_4063_193797" x1="0.455933" y1="41.38" x2="353.928" y2="41.38" gradientUnits="userSpaceOnUse">
            <stop stop-color="#0D2398"/>
            <stop offset="0.47" stop-color="#004CF4"/>
            <stop offset="1" stop-color="#34A0FF"/>
        </linearGradient>
    </defs>
</svg>
