<svg width="88" height="83" viewBox="0 0 88 83" fill="none" xmlns="http://www.w3.org/2000/svg">
    <g clip-path="url(#clip0_4023_80)">
        <path d="M81.9991 15L68.766 33.8162L75.2757 35.4027C69.0327 66.9849 47.2626 76.4616 32.3479 72.2327C32.3426 72.2301 32.34 72.2275 32.3347 72.2248C27.4221 70.8284 23.2513 67.9458 20.6274 63.8726C20.6274 63.87 20.6221 63.8647 20.6221 63.862C20.506 63.6799 20.3898 63.4951 20.2789 63.3077C20.2684 63.2919 20.2578 63.2734 20.2499 63.2575C20.0255 62.8748 19.8117 62.4815 19.6137 62.0802C19.6005 62.0512 19.5847 62.0221 19.5715 61.9931C19.4897 61.8242 19.4105 61.6552 19.3313 61.481C19.3128 61.4414 19.297 61.4044 19.2785 61.3648C19.1016 60.9662 18.9406 60.5597 18.7928 60.1426C18.7743 60.0951 18.7584 60.0449 18.7426 59.9974C18.6872 59.8364 18.6317 59.6727 18.5789 59.5091C18.5605 59.4536 18.5446 59.4008 18.5261 59.3454C18.3968 58.9283 18.2833 58.5007 18.183 58.0678C18.1698 58.007 18.1566 57.9437 18.1407 57.883C18.1038 57.722 18.0721 57.5583 18.0378 57.3946C18.0246 57.3313 18.0114 57.2653 18.0008 57.2019C17.9612 56.9802 17.9216 56.7584 17.8873 56.5341L17.882 56.5209C17.8583 56.3493 17.8319 56.1698 17.8108 55.9929C16.6757 46.7696 23.2302 38.3751 32.4535 37.24C34.436 36.9972 36.3788 37.1107 38.2188 37.5278C38.224 37.5304 38.2293 37.533 38.2319 37.5357C40.9535 38.156 43.4534 39.4389 45.523 41.2287L45.5362 41.2393C45.9374 41.5877 46.3202 41.9546 46.6871 42.3374C46.7135 42.3638 46.7372 42.3902 46.7636 42.4192C46.9194 42.5855 47.0725 42.7545 47.223 42.9261C47.2467 42.9525 47.2705 42.9789 47.2916 43.0053C47.4553 43.1953 47.6163 43.3907 47.772 43.5913C47.7984 43.6256 47.8248 43.6626 47.8539 43.6969C47.9806 43.8605 48.102 44.0269 48.2208 44.1932C48.2604 44.2486 48.2973 44.3014 48.3369 44.3568C48.4769 44.5601 48.6168 44.766 48.7487 44.9745C53.8752 39.5815 54.6565 28.9802 44.4855 23.1516C38.5065 19.7252 32.1209 19.6988 27.2321 20.3033C13.5476 21.9901 3.04924 32.3723 0.610106 45.2332C0.0214402 48.3086 -0.0999887 51.5211 0.298615 54.7945C3.27362 78.9615 31.9097 89.9456 55.6781 78.0165C55.9263 77.8898 56.1744 77.7657 56.4199 77.6337C56.4252 77.6337 56.4252 77.6284 56.4252 77.6284C72.3456 69.0677 79.6735 46.9227 81.1016 36.551L87.3684 38.0715L81.9991 15Z" fill="#346FEF"/>
        <path d="M30.0664 14C33.9324 14 37.0664 10.866 37.0664 7C37.0664 3.13401 33.9324 0 30.0664 0C26.2004 0 23.0664 3.13401 23.0664 7C23.0664 10.866 26.2004 14 30.0664 14Z" fill="#346FEF"/>
    </g>
    <defs>
        <clipPath id="clip0_4023_80">
            <rect width="87" height="83" fill="white" transform="translate(0.0332031)"/>
        </clipPath>
    </defs>
</svg>
